<svg preserveAspectRatio="none" width="100%" height="100%" overflow="visible" style="display: block;" viewBox="0 0 73.9999 63.3795" fill="none" xmlns="http://www.w3.org/2000/svg">
<g id="Group">
<path id="Vector" d="M31.1014 8.16359C21.19 6.26277 11.9575 2.05381 2.18181 0.017215C1.2314 -0.118558 -0.126329 0.560307 0.00944398 1.64649C1.2314 12.101 4.89727 22.0124 8.83468 31.7879C9.242 32.874 10.8713 32.6025 10.7355 31.5163C14.1298 29.6155 15.4876 22.6911 15.8949 18.6179C22.0047 17.5317 27.164 15.3593 31.7803 11.1504C32.7309 10.2002 32.3236 8.43514 31.1014 8.16359ZM12.6363 17.1246C12.5006 20.7905 10.5997 23.9132 9.51355 27.1718C7.06963 19.5685 4.7615 11.9652 3.67531 3.95463C11.5501 5.85545 19.0177 8.84245 26.8925 10.879C23.0908 13.4587 18.7461 14.8165 13.9941 15.6311C13.0436 15.4953 12.6363 16.31 12.6363 17.1246Z" fill="var(--fill-0, black)"/>
<path id="Vector_2" d="M52.418 24.4563C43.3212 24.4563 34.36 24.4563 25.2632 24.4563C23.9055 24.4563 23.2266 25.9498 23.7697 27.036C27.2998 34.9108 30.9657 42.7857 34.2242 50.9321C34.6315 51.8822 35.7177 51.7467 36.125 51.0676C36.5324 51.8822 38.0259 51.7467 38.0259 50.6603C38.2976 46.044 38.1616 41.1562 40.6058 37.083C43.0497 33.1456 49.1595 31.109 53.2326 29.3439C54.1831 28.9366 54.1831 27.9862 53.7757 27.3073C54.4546 26.2214 54.0473 24.4563 52.418 24.4563ZM37.8903 35.4539C35.1746 39.2556 35.7179 45.0938 35.9895 49.7101C33.9529 42.2428 30.9659 35.0466 27.8431 27.9867C34.7675 27.9867 41.6919 27.9867 48.6164 27.9867C44.5432 29.6157 40.47 31.7879 37.8903 35.4539Z" fill="var(--fill-0, black)"/>
<path id="Vector_3" d="M72.2409 38.848C63.5514 38.7125 54.9977 38.1692 46.444 39.7985C45.222 40.0702 44.8147 41.5635 45.3578 42.5139C49.1595 49.031 52.5538 55.8197 56.7627 62.201C57.0343 62.6083 57.4416 62.7439 57.8489 62.7439C58.1205 63.6943 59.8855 63.5587 59.7497 62.4723C59.3424 59.4853 60.0213 56.6341 60.5644 53.7828C61.1075 50.7958 61.1075 51.0674 63.6872 49.5739C66.5384 47.9444 70.6116 45.3647 72.7839 42.5137C74.549 41.835 74.4132 38.848 72.2409 38.848ZM58.7993 48.2166C58.2562 48.4881 57.9847 49.0312 57.9847 49.5743C58.1202 52.2896 57.5774 55.141 57.4416 57.8565C54.9977 52.8327 52.418 47.6735 49.7025 42.7855C55.6766 41.835 61.7863 42.1066 67.8961 42.2426C67.6246 42.5141 67.2173 42.7855 66.9457 43.0572C64.5018 45.2296 61.7863 46.9946 58.7993 48.2166Z" fill="var(--fill-0, black)"/>
</g>
</svg>
