<svg width="301" height="365" viewBox="0 0 301 365" fill="none" xmlns="http://www.w3.org/2000/svg">
<defs><mask id="sh"><rect width="301" height="365" fill="white"/><rect x="15.04" y="12.73" width="270.78" height="586" rx="38.19" fill="black"/><rect x="107.62" y="21.99" width="85.63" height="25" rx="12.5" fill="white"/></mask></defs>
<g mask="url(#sh)"><g clip-path="url(#clip0_2468_2139)">
<rect x="2.31421" width="296.242" height="611.463" rx="48.6023" fill="black"/>
<rect x="4.97628" y="2.66158" width="290.919" height="606.14" rx="45.9407" stroke="#565553" stroke-width="3.00871"/>
<rect x="2.89281" y="0.578598" width="295.085" height="610.306" rx="48.0237" stroke="#3F3E3B" stroke-width="1.1572"/>
<g opacity="0.9" filter="url(#filter0_f_2468_2139)">
<rect x="3.47192" y="1.38867" width="293.928" height="608.917" rx="47.6765" stroke="#31302E" stroke-width="1.1572"/>
</g>
<g opacity="0.8" filter="url(#filter1_f_2468_2139)">
<rect x="7.4065" y="5.09083" width="286.059" height="601.28" rx="43.5106" stroke="#646464" stroke-width="0.462879"/>
</g>
<rect x="15.0435" y="12.7285" width="270.784" height="586.005" rx="38.1875" fill="white"/>
<rect x="107.619" y="21.9863" width="85.6326" height="24.9955" rx="12.4977" fill="black"/>
<g opacity="0.75">
<rect x="170.108" y="28.4668" width="12.0348" height="12.0348" rx="6.01742" fill="#121212"/>
<g filter="url(#filter2_f_2468_2139)"><path d="M174.836 31.9053C172.881 32.4784 172.229 35.7736 174.836 37.0631C174.184 35.3438 174.184 33.7678 174.836 31.9053Z" fill="#50A99A"/></g>
<g filter="url(#filter3_f_2468_2139)"><path d="M174.406 33.0957C173.429 33.4043 173.103 35.1787 174.406 35.873C174.08 34.9472 174.08 34.0986 174.406 33.0957Z" fill="#50A99A"/></g>
<g opacity="0.4" filter="url(#filter4_f_2468_2139)"><path d="M174.808 32.6475C173.971 32.7738 173.359 35.0917 174.37 35.7072C174.012 34.8806 174.191 33.2275 174.808 32.6475Z" fill="#D0FFF7"/></g>
<g filter="url(#filter5_f_2468_2139)"><path d="M177.415 31.9053C179.37 32.4784 180.021 35.7736 177.415 37.0631C178.066 35.3438 178.066 33.7678 177.415 31.9053Z" fill="#3E518C"/></g>
<g filter="url(#filter6_f_2468_2139)"><path d="M177.844 33.0957C178.822 33.4043 179.148 35.1787 177.844 35.873C178.17 34.9472 178.17 34.0986 177.844 33.0957Z" fill="#26408D"/></g>
<g opacity="0.5" filter="url(#filter7_f_2468_2139)"><path d="M177.442 32.6475C178.28 32.7738 178.892 35.0917 177.88 35.7072C178.239 34.8806 178.059 33.2275 177.442 32.6475Z" fill="#0D308C"/></g>
</g>
<g opacity="0.4">
<rect width="16.6636" height="16.6636" rx="8.33182" transform="matrix(-1 0 0 1 128.449 26.1523)" fill="#141414"/>
<rect width="10.8314" height="10.8314" rx="5.41568" transform="matrix(-1 0 0 1 125.533 29.0684)" fill="black"/>
<g filter="url(#filter8_f_2468_2139)"><path d="M121.742 31.2344C124.206 31.9565 125.027 36.1085 121.742 37.7332C122.563 35.5669 122.563 33.5812 121.742 31.2344Z" fill="#50A99A"/></g>
<g filter="url(#filter9_f_2468_2139)"><path d="M122.284 32.7344C123.515 33.1232 123.926 35.3589 122.284 36.2337C122.694 35.0673 122.694 33.998 122.284 32.7344Z" fill="#50A99A"/></g>
<g opacity="0.5" filter="url(#filter10_f_2468_2139)"><path d="M121.777 32.1701C122.833 32.3292 123.604 35.2498 122.329 36.0253C122.78 34.9838 122.555 32.9008 121.777 32.1701Z" fill="#D0FFF7"/></g>
<g filter="url(#filter11_f_2468_2139)"><path d="M118.492 31.2344C116.029 31.9565 115.208 36.1085 118.492 37.7332C117.671 35.5669 117.671 33.5812 118.492 31.2344Z" fill="#3E518C"/></g>
<g filter="url(#filter12_f_2468_2139)"><path d="M117.951 32.7344C116.719 33.1232 116.309 35.3589 117.951 36.2337C117.54 35.0673 117.54 33.998 117.951 32.7344Z" fill="#26408D"/></g>
<g opacity="0.5" filter="url(#filter13_f_2468_2139)"><path d="M118.458 32.1701C117.402 32.3292 116.631 35.2498 117.906 36.0253C117.454 34.9838 117.68 32.9008 118.458 32.1701Z" fill="#0D308C"/></g>
</g>
</g>
<g clip-path="url(#clip1_2468_2139)">
<g filter="url(#filter14_f_2468_2139)"><rect width="2" height="72.5371" rx="0.231439" transform="matrix(-1 0 0 1 300.64 184.92)" fill="#DEDEDE"/><rect x="0.11572" y="-0.11572" width="2.23144" height="72.7686" rx="0.347159" transform="matrix(-1 0 0 1 300.871 184.92)" stroke="black" stroke-width="0.231439"/></g>
<g filter="url(#filter15_f_2468_2139)"><rect x="0.11572" y="-0.11572" width="1.76856" height="72.3057" rx="0.162008" transform="matrix(-1 0 0 1 300.64 185.151)" stroke="#FAFAF8" stroke-width="0.231439"/></g>
<g filter="url(#filter16_f_2468_2139)"><rect width="2.08295" height="5.09167" rx="0.11572" transform="matrix(-1 0 0 1 300.408 185.151)" fill="url(#paint0_linear_2468_2139)"/></g>
<g filter="url(#filter17_f_2468_2139)"><rect x="300.408" y="257.226" width="2.08295" height="5.09167" rx="0.11572" transform="rotate(180 300.408 257.226)" fill="url(#paint1_linear_2468_2139)"/></g>
</g>
<g clip-path="url(#clip2_2468_2139)">
<g filter="url(#filter18_f_2468_2139)"><rect x="0.231445" y="124.745" width="2" height="21.5371" rx="0.231439" fill="#DEDEDE"/><rect x="0.115726" y="124.629" width="2.23144" height="21.7686" rx="0.347159" stroke="black" stroke-width="0.231439"/></g>
<g filter="url(#filter19_f_2468_2139)"><rect x="0.347171" y="124.861" width="1.76856" height="21.3057" rx="0.162008" stroke="#FAFAF8" stroke-width="0.231439"/></g>
<g filter="url(#filter20_f_2468_2139)"><rect x="0.462891" y="124.977" width="2.08295" height="2.54583" rx="0.11572" fill="url(#paint2_linear_2468_2139)"/></g>
<g filter="url(#filter21_f_2468_2139)"><rect width="2.08295" height="2.54583" rx="0.11572" transform="matrix(1 0 0 -1 0.462891 146.051)" fill="url(#paint3_linear_2468_2139)"/></g>
</g>
<g clip-path="url(#clip3_2468_2139)">
<g filter="url(#filter22_f_2468_2139)"><rect x="0.231445" y="168.488" width="2" height="46.5371" rx="0.231439" fill="#DEDEDE"/><rect x="0.115726" y="168.373" width="2.23144" height="46.7686" rx="0.347159" stroke="black" stroke-width="0.231439"/></g>
<g filter="url(#filter23_f_2468_2139)"><rect x="0.347171" y="168.604" width="1.76856" height="46.3057" rx="0.162008" stroke="#FAFAF8" stroke-width="0.231439"/></g>
<g filter="url(#filter24_f_2468_2139)"><rect x="0.462891" y="168.72" width="2.08295" height="5.09167" rx="0.11572" fill="url(#paint4_linear_2468_2139)"/></g>
<g filter="url(#filter25_f_2468_2139)"><rect width="2.08295" height="5.09167" rx="0.11572" transform="matrix(1 0 0 -1 0.462891 214.794)" fill="url(#paint5_linear_2468_2139)"/></g>
</g>
<g clip-path="url(#clip4_2468_2139)">
<g filter="url(#filter26_f_2468_2139)"><rect x="0.231445" y="227.273" width="2" height="46.5371" rx="0.231439" fill="#DEDEDE"/><rect x="0.115726" y="227.158" width="2.23144" height="46.7686" rx="0.347159" stroke="black" stroke-width="0.231439"/></g>
<g filter="url(#filter27_f_2468_2139)"><rect x="0.347171" y="227.389" width="1.76856" height="46.3057" rx="0.162008" stroke="#FAFAF8" stroke-width="0.231439"/></g>
<g filter="url(#filter28_f_2468_2139)"><rect x="0.462891" y="227.505" width="2.08295" height="5.09167" rx="0.11572" fill="url(#paint6_linear_2468_2139)"/></g>
<g filter="url(#filter29_f_2468_2139)"><rect width="2.08295" height="5.09167" rx="0.11572" transform="matrix(1 0 0 -1 0.462891 273.579)" fill="url(#paint7_linear_2468_2139)"/></g>
</g>
</g>
<defs>
<filter id="filter0_f_2468_2139" x="2.19899" y="0.116229" width="296.474" height="611.463" filterUnits="userSpaceOnUse" color-interpolation-filters="sRGB"><feFlood flood-opacity="0" result="BackgroundImageFix"/><feBlend mode="normal" in="SourceGraphic" in2="BackgroundImageFix" result="shape"/><feGaussianBlur stdDeviation="0.347159" result="effect1_foregroundBlur_2468_2139"/></filter>
<filter id="filter1_f_2468_2139" x="6.71217" y="4.3965" width="287.448" height="602.668" filterUnits="userSpaceOnUse" color-interpolation-filters="sRGB"><feFlood flood-opacity="0" result="BackgroundImageFix"/><feBlend mode="normal" in="SourceGraphic" in2="BackgroundImageFix" result="shape"/><feGaussianBlur stdDeviation="0.231439" result="effect1_foregroundBlur_2468_2139"/></filter>
<filter id="filter2_f_2468_2139" x="171.827" y="30.6158" width="4.29813" height="7.7371" filterUnits="userSpaceOnUse" color-interpolation-filters="sRGB"><feFlood flood-opacity="0" result="BackgroundImageFix"/><feBlend mode="normal" in="SourceGraphic" in2="BackgroundImageFix" result="shape"/><feGaussianBlur stdDeviation="0.644724" result="effect1_foregroundBlur_2468_2139"/></filter>
<filter id="filter3_f_2468_2139" x="172.257" y="31.8063" width="3.43852" height="5.35624" filterUnits="userSpaceOnUse" color-interpolation-filters="sRGB"><feFlood flood-opacity="0" result="BackgroundImageFix"/><feBlend mode="normal" in="SourceGraphic" in2="BackgroundImageFix" result="shape"/><feGaussianBlur stdDeviation="0.644724" result="effect1_foregroundBlur_2468_2139"/></filter>
<filter id="filter4_f_2468_2139" x="172.984" y="31.7878" width="2.68411" height="4.77883" filterUnits="userSpaceOnUse" color-interpolation-filters="sRGB"><feFlood flood-opacity="0" result="BackgroundImageFix"/><feBlend mode="normal" in="SourceGraphic" in2="BackgroundImageFix" result="shape"/><feGaussianBlur stdDeviation="0.429816" result="effect1_foregroundBlur_2468_2139"/></filter>
<filter id="filter5_f_2468_2139" x="176.125" y="30.6158" width="4.29813" height="7.7371" filterUnits="userSpaceOnUse" color-interpolation-filters="sRGB"><feFlood flood-opacity="0" result="BackgroundImageFix"/><feBlend mode="normal" in="SourceGraphic" in2="BackgroundImageFix" result="shape"/><feGaussianBlur stdDeviation="0.644724" result="effect1_foregroundBlur_2468_2139"/></filter>
<filter id="filter6_f_2468_2139" x="176.555" y="31.8063" width="3.43852" height="5.35624" filterUnits="userSpaceOnUse" color-interpolation-filters="sRGB"><feFlood flood-opacity="0" result="BackgroundImageFix"/><feBlend mode="normal" in="SourceGraphic" in2="BackgroundImageFix" result="shape"/><feGaussianBlur stdDeviation="0.644724" result="effect1_foregroundBlur_2468_2139"/></filter>
<filter id="filter7_f_2468_2139" x="176.583" y="31.7878" width="2.68411" height="4.77883" filterUnits="userSpaceOnUse" color-interpolation-filters="sRGB"><feFlood flood-opacity="0" result="BackgroundImageFix"/><feBlend mode="normal" in="SourceGraphic" in2="BackgroundImageFix" result="shape"/><feGaussianBlur stdDeviation="0.429816" result="effect1_foregroundBlur_2468_2139"/></filter>
<filter id="filter8_f_2468_2139" x="120.117" y="29.6097" width="5.41567" height="9.74843" filterUnits="userSpaceOnUse" color-interpolation-filters="sRGB"><feFlood flood-opacity="0" result="BackgroundImageFix"/><feBlend mode="normal" in="SourceGraphic" in2="BackgroundImageFix" result="shape"/><feGaussianBlur stdDeviation="0.812352" result="effect1_foregroundBlur_2468_2139"/></filter>
<filter id="filter9_f_2468_2139" x="120.659" y="31.1097" width="4.33266" height="6.74843" filterUnits="userSpaceOnUse" color-interpolation-filters="sRGB"><feFlood flood-opacity="0" result="BackgroundImageFix"/><feBlend mode="normal" in="SourceGraphic" in2="BackgroundImageFix" result="shape"/><feGaussianBlur stdDeviation="0.812352" result="effect1_foregroundBlur_2468_2139"/></filter>
<filter id="filter10_f_2468_2139" x="121.236" y="31.6284" width="2.29896" height="4.93861" filterUnits="userSpaceOnUse" color-interpolation-filters="sRGB"><feFlood flood-opacity="0" result="BackgroundImageFix"/><feBlend mode="normal" in="SourceGraphic" in2="BackgroundImageFix" result="shape"/><feGaussianBlur stdDeviation="0.270784" result="effect1_foregroundBlur_2468_2139"/></filter>
<filter id="filter11_f_2468_2139" x="114.701" y="29.6097" width="5.41567" height="9.74843" filterUnits="userSpaceOnUse" color-interpolation-filters="sRGB"><feFlood flood-opacity="0" result="BackgroundImageFix"/><feBlend mode="normal" in="SourceGraphic" in2="BackgroundImageFix" result="shape"/><feGaussianBlur stdDeviation="0.812352" result="effect1_foregroundBlur_2468_2139"/></filter>
<filter id="filter12_f_2468_2139" x="115.243" y="31.1097" width="4.33266" height="6.74843" filterUnits="userSpaceOnUse" color-interpolation-filters="sRGB"><feFlood flood-opacity="0" result="BackgroundImageFix"/><feBlend mode="normal" in="SourceGraphic" in2="BackgroundImageFix" result="shape"/><feGaussianBlur stdDeviation="0.812352" result="effect1_foregroundBlur_2468_2139"/></filter>
<filter id="filter13_f_2468_2139" x="116.7" y="31.6284" width="2.29896" height="4.93861" filterUnits="userSpaceOnUse" color-interpolation-filters="sRGB"><feFlood flood-opacity="0" result="BackgroundImageFix"/><feBlend mode="normal" in="SourceGraphic" in2="BackgroundImageFix" result="shape"/><feGaussianBlur stdDeviation="0.270784" result="effect1_foregroundBlur_2468_2139"/></filter>
<filter id="filter14_f_2468_2139" x="298.177" y="184.457" width="2.92577" height="73.4629" filterUnits="userSpaceOnUse" color-interpolation-filters="sRGB"><feFlood flood-opacity="0" result="BackgroundImageFix"/><feBlend mode="normal" in="SourceGraphic" in2="BackgroundImageFix" result="shape"/><feGaussianBlur stdDeviation="0.11572" result="effect1_foregroundBlur_2468_2139"/></filter>
<filter id="filter15_f_2468_2139" x="298.408" y="184.688" width="2.46288" height="73" filterUnits="userSpaceOnUse" color-interpolation-filters="sRGB"><feFlood flood-opacity="0" result="BackgroundImageFix"/><feBlend mode="normal" in="SourceGraphic" in2="BackgroundImageFix" result="shape"/><feGaussianBlur stdDeviation="0.11572" result="effect1_foregroundBlur_2468_2139"/></filter>
<filter id="filter16_f_2468_2139" x="298.094" y="184.92" width="2.54589" height="5.55468" filterUnits="userSpaceOnUse" color-interpolation-filters="sRGB"><feFlood flood-opacity="0" result="BackgroundImageFix"/><feBlend mode="normal" in="SourceGraphic" in2="BackgroundImageFix" result="shape"/><feGaussianBlur stdDeviation="0.11572" result="effect1_foregroundBlur_2468_2139"/></filter>
<filter id="filter17_f_2468_2139" x="298.094" y="251.902" width="2.54589" height="5.55468" filterUnits="userSpaceOnUse" color-interpolation-filters="sRGB"><feFlood flood-opacity="0" result="BackgroundImageFix"/><feBlend mode="normal" in="SourceGraphic" in2="BackgroundImageFix" result="shape"/><feGaussianBlur stdDeviation="0.11572" result="effect1_foregroundBlur_2468_2139"/></filter>
<filter id="filter18_f_2468_2139" x="-0.231439" y="124.282" width="2.92577" height="22.4629" filterUnits="userSpaceOnUse" color-interpolation-filters="sRGB"><feFlood flood-opacity="0" result="BackgroundImageFix"/><feBlend mode="normal" in="SourceGraphic" in2="BackgroundImageFix" result="shape"/><feGaussianBlur stdDeviation="0.11572" result="effect1_foregroundBlur_2468_2139"/></filter>
<filter id="filter19_f_2468_2139" x="5.90086e-06" y="124.514" width="2.46288" height="22" filterUnits="userSpaceOnUse" color-interpolation-filters="sRGB"><feFlood flood-opacity="0" result="BackgroundImageFix"/><feBlend mode="normal" in="SourceGraphic" in2="BackgroundImageFix" result="shape"/><feGaussianBlur stdDeviation="0.11572" result="effect1_foregroundBlur_2468_2139"/></filter>
<filter id="filter20_f_2468_2139" x="0.231451" y="124.745" width="2.54589" height="3.00878" filterUnits="userSpaceOnUse" color-interpolation-filters="sRGB"><feFlood flood-opacity="0" result="BackgroundImageFix"/><feBlend mode="normal" in="SourceGraphic" in2="BackgroundImageFix" result="shape"/><feGaussianBlur stdDeviation="0.11572" result="effect1_foregroundBlur_2468_2139"/></filter>
<filter id="filter21_f_2468_2139" x="0.231451" y="143.273" width="2.54589" height="3.00878" filterUnits="userSpaceOnUse" color-interpolation-filters="sRGB"><feFlood flood-opacity="0" result="BackgroundImageFix"/><feBlend mode="normal" in="SourceGraphic" in2="BackgroundImageFix" result="shape"/><feGaussianBlur stdDeviation="0.11572" result="effect1_foregroundBlur_2468_2139"/></filter>
<filter id="filter22_f_2468_2139" x="-0.231439" y="168.025" width="2.92577" height="47.4629" filterUnits="userSpaceOnUse" color-interpolation-filters="sRGB"><feFlood flood-opacity="0" result="BackgroundImageFix"/><feBlend mode="normal" in="SourceGraphic" in2="BackgroundImageFix" result="shape"/><feGaussianBlur stdDeviation="0.11572" result="effect1_foregroundBlur_2468_2139"/></filter>
<filter id="filter23_f_2468_2139" x="5.90086e-06" y="168.257" width="2.46288" height="47" filterUnits="userSpaceOnUse" color-interpolation-filters="sRGB"><feFlood flood-opacity="0" result="BackgroundImageFix"/><feBlend mode="normal" in="SourceGraphic" in2="BackgroundImageFix" result="shape"/><feGaussianBlur stdDeviation="0.11572" result="effect1_foregroundBlur_2468_2139"/></filter>
<filter id="filter24_f_2468_2139" x="0.231451" y="168.488" width="2.54589" height="5.55468" filterUnits="userSpaceOnUse" color-interpolation-filters="sRGB"><feFlood flood-opacity="0" result="BackgroundImageFix"/><feBlend mode="normal" in="SourceGraphic" in2="BackgroundImageFix" result="shape"/><feGaussianBlur stdDeviation="0.11572" result="effect1_foregroundBlur_2468_2139"/></filter>
<filter id="filter25_f_2468_2139" x="0.231451" y="209.471" width="2.54589" height="5.55468" filterUnits="userSpaceOnUse" color-interpolation-filters="sRGB"><feFlood flood-opacity="0" result="BackgroundImageFix"/><feBlend mode="normal" in="SourceGraphic" in2="BackgroundImageFix" result="shape"/><feGaussianBlur stdDeviation="0.11572" result="effect1_foregroundBlur_2468_2139"/></filter>
<filter id="filter26_f_2468_2139" x="-0.231439" y="226.811" width="2.92577" height="47.4629" filterUnits="userSpaceOnUse" color-interpolation-filters="sRGB"><feFlood flood-opacity="0" result="BackgroundImageFix"/><feBlend mode="normal" in="SourceGraphic" in2="BackgroundImageFix" result="shape"/><feGaussianBlur stdDeviation="0.11572" result="effect1_foregroundBlur_2468_2139"/></filter>
<filter id="filter27_f_2468_2139" x="5.90086e-06" y="227.042" width="2.46288" height="47" filterUnits="userSpaceOnUse" color-interpolation-filters="sRGB"><feFlood flood-opacity="0" result="BackgroundImageFix"/><feBlend mode="normal" in="SourceGraphic" in2="BackgroundImageFix" result="shape"/><feGaussianBlur stdDeviation="0.11572" result="effect1_foregroundBlur_2468_2139"/></filter>
<filter id="filter28_f_2468_2139" x="0.231451" y="227.273" width="2.54589" height="5.55468" filterUnits="userSpaceOnUse" color-interpolation-filters="sRGB"><feFlood flood-opacity="0" result="BackgroundImageFix"/><feBlend mode="normal" in="SourceGraphic" in2="BackgroundImageFix" result="shape"/><feGaussianBlur stdDeviation="0.11572" result="effect1_foregroundBlur_2468_2139"/></filter>
<filter id="filter29_f_2468_2139" x="0.231451" y="268.256" width="2.54589" height="5.55468" filterUnits="userSpaceOnUse" color-interpolation-filters="sRGB"><feFlood flood-opacity="0" result="BackgroundImageFix"/><feBlend mode="normal" in="SourceGraphic" in2="BackgroundImageFix" result="shape"/><feGaussianBlur stdDeviation="0.11572" result="effect1_foregroundBlur_2468_2139"/></filter>
<linearGradient id="paint0_linear_2468_2139" x1="1.04148" y1="0" x2="1.04148" y2="5.09167" gradientUnits="userSpaceOnUse"><stop stop-color="#2D2E2A"/><stop offset="0.760033" stop-color="#DEDEDE"/></linearGradient>
<linearGradient id="paint1_linear_2468_2139" x1="301.45" y1="257.226" x2="301.45" y2="262.317" gradientUnits="userSpaceOnUse"><stop stop-color="#2D2E2A"/><stop offset="0.760033" stop-color="#DEDEDE"/></linearGradient>
<linearGradient id="paint2_linear_2468_2139" x1="1.50437" y1="124.977" x2="1.50437" y2="127.522" gradientUnits="userSpaceOnUse"><stop stop-color="#2D2E2A"/><stop offset="0.760033" stop-color="#DEDEDE"/></linearGradient>
<linearGradient id="paint3_linear_2468_2139" x1="1.04148" y1="0" x2="1.04148" y2="2.54583" gradientUnits="userSpaceOnUse"><stop stop-color="#2D2E2A"/><stop offset="0.760033" stop-color="#DEDEDE"/></linearGradient>
<linearGradient id="paint4_linear_2468_2139" x1="1.50437" y1="168.72" x2="1.50437" y2="173.811" gradientUnits="userSpaceOnUse"><stop stop-color="#2D2E2A"/><stop offset="0.760033" stop-color="#DEDEDE"/></linearGradient>
<linearGradient id="paint5_linear_2468_2139" x1="1.04148" y1="0" x2="1.04148" y2="5.09167" gradientUnits="userSpaceOnUse"><stop stop-color="#2D2E2A"/><stop offset="0.760033" stop-color="#DEDEDE"/></linearGradient>
<linearGradient id="paint6_linear_2468_2139" x1="1.50437" y1="227.505" x2="1.50437" y2="232.597" gradientUnits="userSpaceOnUse"><stop stop-color="#2D2E2A"/><stop offset="0.760033" stop-color="#DEDEDE"/></linearGradient>
<linearGradient id="paint7_linear_2468_2139" x1="1.04148" y1="0" x2="1.04148" y2="5.09167" gradientUnits="userSpaceOnUse"><stop stop-color="#2D2E2A"/><stop offset="0.760033" stop-color="#DEDEDE"/></linearGradient>
<clipPath id="clip0_2468_2139"><rect x="2.31421" width="296.242" height="611.463" rx="48.6023" fill="white"/></clipPath>
<clipPath id="clip1_2468_2139"><path d="M300.871 185.151C300.871 184.896 300.664 184.688 300.408 184.688H298.557V257.36H300.408C300.664 257.36 300.871 257.153 300.871 256.898V185.151Z" fill="white"/></clipPath>
<clipPath id="clip2_2468_2139"><path d="M0 124.977C0 124.721 0.207238 124.514 0.462879 124.514H2.31439V146.963H0.462879C0.207238 146.963 0 146.756 0 146.5V124.977Z" fill="white"/></clipPath>
<clipPath id="clip3_2468_2139"><path d="M0 168.72C0 168.464 0.207238 168.257 0.462879 168.257H2.31439V215.008H0.462879C0.207238 215.008 0 214.8 0 214.545V168.72Z" fill="white"/></clipPath>
<clipPath id="clip4_2468_2139"><path d="M0 227.505C0 227.249 0.207238 227.042 0.462879 227.042H2.31439V273.793H0.462879C0.207238 273.793 0 273.586 0 273.33V227.505Z" fill="white"/></clipPath>
</defs>
</svg>
